<svg id="Layer_1" data-name="Layer 1" xmlns="http://www.w3.org/2000/svg" xmlns:xlink="http://www.w3.org/1999/xlink" viewBox="0 0 1366 768"><defs><style>.cls-1{fill:none;}.cls-2,.cls-3,.cls-4,.cls-5,.cls-6,.cls-7{fill:#9e005d;}.cls-2{stroke:#85080a;stroke-width:0.95px;}.cls-3{opacity:0.5;}.cls-4{opacity:0.75;}.cls-5{opacity:0.6;}.cls-7{opacity:0.33;}.cls-8{fill:url(#box-purple);}</style><pattern id="box-purple" data-name="box-purple" width="82.0781" height="82.0781" patternUnits="userSpaceOnUse" viewBox="0 0 82.078 82.078"><rect class="cls-1" width="82.0781" height="82.0781"/><line class="cls-2" x1="30.88662" y1="82.07436" x2="30.88662" y2="164.17986"/><line class="cls-2" x1="58.24602" y1="82.07436" x2="58.24602" y2="164.17986"/><line class="cls-2" x1="3.52722" y1="82.07436" x2="3.52722" y2="164.15246"/><rect class="cls-3" x="37.72642" y="82.07436" width="4.5606" height="82.1055"/><rect class="cls-4" x="65.08582" y="82.07436" width="4.5606" height="82.1055"/><rect class="cls-4" x="10.36712" y="82.07436" width="4.5605" height="82.1055"/><rect class="cls-4" x="74.20502" y="82.07636" width="4.5605" height="82.1035"/><rect class="cls-5" x="19.48622" y="82.07436" width="4.5605" height="82.1055"/><rect class="cls-6" x="0.00182" y="0.00606" width="82.0918" height="82.0957"/><line class="cls-2" x1="0.01162" y1="51.46696" x2="82.08972" y2="51.46696"/><line class="cls-2" x1="0.01162" y1="78.82636" x2="82.08972" y2="78.82636"/><line class="cls-2" x1="0.01162" y1="24.10756" x2="82.08972" y2="24.10756"/><line class="cls-2" x1="30.88662" y1="-0.00374" x2="30.88662" y2="82.10176"/><line class="cls-2" x1="58.24602" y1="-0.00374" x2="58.24602" y2="82.10176"/><line class="cls-2" x1="3.52722" y1="-0.00374" x2="3.52722" y2="82.07436"/><rect class="cls-4" x="0.01162" y="40.06656" width="82.0781" height="4.5606"/><rect class="cls-4" x="0.01162" y="67.42596" width="82.0781" height="4.5605"/><rect class="cls-4" x="0.01162" y="12.70716" width="82.084" height="4.5606"/><rect class="cls-4" x="0.01162" y="30.94746" width="82.0781" height="4.5586"/><rect class="cls-4" x="0.01162" y="58.30686" width="82.0781" height="4.5605"/><rect class="cls-4" x="0.01162" y="3.58806" width="82.082" height="4.5586"/><rect class="cls-3" x="37.72642" y="-0.00374" width="4.5606" height="82.1055"/><rect class="cls-4" x="65.08582" y="-0.00374" width="4.5606" height="82.1055"/><rect class="cls-4" x="10.36712" y="-0.00374" width="4.5605" height="82.1055"/><rect class="cls-4" x="46.84562" y="0.00216" width="4.5605" height="82.0996"/><rect class="cls-4" x="74.20502" y="-0.00174" width="4.5605" height="82.1035"/><rect class="cls-5" x="19.48622" y="-0.00374" width="4.5605" height="82.1055"/><rect class="cls-7" x="10.36712" y="12.70716" width="4.5605" height="4.5606"/><rect class="cls-7" x="19.48622" y="3.58806" width="4.5605" height="4.5586"/><rect class="cls-7" x="19.48622" y="12.70716" width="4.5605" height="4.5606"/><rect class="cls-7" x="10.36712" y="3.58806" width="4.5605" height="4.5586"/><rect class="cls-7" x="37.72642" y="12.70716" width="4.5606" height="4.5606"/><rect class="cls-7" x="46.84562" y="3.58806" width="4.5605" height="4.5586"/><rect class="cls-7" x="46.84562" y="12.70716" width="4.5605" height="4.5606"/><rect class="cls-7" x="37.72642" y="3.58806" width="4.5606" height="4.5586"/><rect class="cls-7" x="65.08582" y="12.70716" width="4.5606" height="4.5606"/><rect class="cls-7" x="74.20502" y="3.58806" width="4.5605" height="4.5586"/><rect class="cls-7" x="74.20502" y="12.70716" width="4.5605" height="4.5606"/><rect class="cls-7" x="65.08582" y="3.58806" width="4.5606" height="4.5586"/><rect class="cls-7" x="10.36712" y="40.06656" width="4.5605" height="4.5606"/><rect class="cls-7" x="19.48622" y="30.94746" width="4.5605" height="4.5586"/><rect class="cls-7" x="19.48622" y="40.06656" width="4.5605" height="4.5606"/><rect class="cls-7" x="10.36712" y="30.94746" width="4.5605" height="4.5586"/><rect class="cls-7" x="37.72642" y="40.06656" width="4.5606" height="4.5606"/><rect class="cls-7" x="46.84562" y="30.94746" width="4.5605" height="4.5586"/><rect class="cls-7" x="46.84562" y="40.06656" width="4.5605" height="4.5606"/><rect class="cls-7" x="37.72642" y="30.94746" width="4.5606" height="4.5586"/><rect class="cls-7" x="65.08582" y="40.06656" width="4.5606" height="4.5606"/><rect class="cls-7" x="74.20502" y="30.94746" width="4.5605" height="4.5586"/><rect class="cls-7" x="74.20502" y="40.06656" width="4.5605" height="4.5606"/><rect class="cls-7" x="65.08582" y="30.94746" width="4.5606" height="4.5586"/><rect class="cls-7" x="10.36712" y="67.42596" width="4.5605" height="4.5605"/><rect class="cls-7" x="19.48622" y="58.30686" width="4.5605" height="4.5605"/><rect class="cls-7" x="19.48622" y="67.42596" width="4.5605" height="4.5605"/><rect class="cls-7" x="10.36712" y="58.30686" width="4.5605" height="4.5605"/><rect class="cls-7" x="37.72642" y="67.42596" width="4.5606" height="4.5605"/><rect class="cls-7" x="46.84562" y="58.30686" width="4.5605" height="4.5605"/><rect class="cls-7" x="46.84562" y="67.42596" width="4.5605" height="4.5605"/><rect class="cls-7" x="37.72642" y="58.30686" width="4.5606" height="4.5605"/><rect class="cls-7" x="65.08582" y="67.42596" width="4.5606" height="4.5605"/><rect class="cls-7" x="74.20502" y="58.30686" width="4.5605" height="4.5605"/><rect class="cls-7" x="74.20502" y="67.42596" width="4.5605" height="4.5605"/><rect class="cls-7" x="65.08582" y="58.30686" width="4.5606" height="4.5605"/><rect class="cls-6" x="-82.07628" y="0.00606" width="82.0918" height="82.0957"/><line class="cls-2" x1="-82.06648" y1="51.46696" x2="0.01162" y2="51.46696"/><line class="cls-2" x1="-82.06648" y1="78.82636" x2="0.01162" y2="78.82636"/><line class="cls-2" x1="-82.06648" y1="24.10756" x2="0.01162" y2="24.10756"/><rect class="cls-4" x="-82.06648" y="40.06656" width="82.0781" height="4.5606"/><rect class="cls-4" x="-82.06648" y="67.42596" width="82.0781" height="4.5605"/><rect class="cls-4" x="-82.06648" y="12.70716" width="82.084" height="4.5606"/><rect class="cls-4" x="-82.06648" y="30.94746" width="82.0781" height="4.5586"/><rect class="cls-4" x="-82.06648" y="58.30686" width="82.0781" height="4.5605"/><rect class="cls-4" x="-82.06648" y="3.58806" width="82.082" height="4.5586"/><rect class="cls-6" x="0.00182" y="-82.07204" width="82.0918" height="82.0957"/><line class="cls-2" x1="30.88662" y1="-82.08184" x2="30.88662" y2="0.02366"/><line class="cls-2" x1="58.24602" y1="-82.08184" x2="58.24602" y2="0.02366"/><rect class="cls-3" x="37.72642" y="-82.08184" width="4.5606" height="82.1055"/><rect class="cls-4" x="65.08582" y="-82.08184" width="4.5606" height="82.1055"/><rect class="cls-4" x="10.36712" y="-82.08184" width="4.5605" height="82.1055"/><rect class="cls-4" x="46.84562" y="-82.07594" width="4.5605" height="82.0996"/><rect class="cls-4" x="74.20502" y="-82.07984" width="4.5605" height="82.1035"/><rect class="cls-5" x="19.48622" y="-82.08184" width="4.5605" height="82.1055"/><rect class="cls-6" x="-82.07628" y="-82.07204" width="82.0918" height="82.0957"/></pattern></defs><title>drumkit-pattern</title><rect class="cls-8" width="1366" height="768"/></svg>