<svg id="Layer_1" data-name="Layer 1" xmlns="http://www.w3.org/2000/svg" viewBox="0 0 1366 768"><defs><pattern id="box-purple" data-name="box-purple" width="82.08" height="82.08" patternUnits="userSpaceOnUse"><path fill="none" d="M0 0h82.08v82.08H0z"/><path class="cls-2" d="M30.89 82.07v82.11M58.25 82.07v82.11M3.53 82.07v82.08"/><path class="cls-3" d="M37.73 82.07h4.56v82.11h-4.56z"/><path class="cls-4" d="M65.09 82.07h4.56v82.11h-4.56zM10.37 82.07h4.56v82.11h-4.56zM74.21 82.08h4.56v82.1h-4.56z"/><path class="cls-5" d="M19.49 82.07h4.56v82.11h-4.56z"/><path class="cls-6" d="M0 .01h82.09v82.1H0z"/><path class="cls-2" d="M.01 51.47h82.08M.01 78.83h82.08M.01 24.11h82.08M30.89 0v82.1M58.25 0v82.1M3.53 0v82.07"/><path class="cls-4" d="M.01 40.07h82.08v4.56H.01zM.01 67.43h82.08v4.56H.01zM.01 12.71h82.08v4.56H.01zM.01 30.95h82.08v4.56H.01zM.01 58.31h82.08v4.56H.01zM.01 3.59h82.08v4.56H.01z"/><path class="cls-3" d="M37.73 0h4.56v82.11h-4.56z"/><path class="cls-4" d="M65.09 0h4.56v82.11h-4.56zM10.37 0h4.56v82.11h-4.56zM46.85 0h4.56v82.1h-4.56zM74.21 0h4.56v82.1h-4.56z"/><path class="cls-5" d="M19.49 0h4.56v82.11h-4.56z"/><path class="cls-7" d="M10.37 12.71h4.56v4.56h-4.56zM19.49 3.59h4.56v4.56h-4.56zM19.49 12.71h4.56v4.56h-4.56zM10.37 3.59h4.56v4.56h-4.56zM37.73 12.71h4.56v4.56h-4.56zM46.85 3.59h4.56v4.56h-4.56zM46.85 12.71h4.56v4.56h-4.56zM37.73 3.59h4.56v4.56h-4.56zM65.09 12.71h4.56v4.56h-4.56zM74.21 3.59h4.56v4.56h-4.56zM74.21 12.71h4.56v4.56h-4.56zM65.09 3.59h4.56v4.56h-4.56zM10.37 40.07h4.56v4.56h-4.56zM19.49 30.95h4.56v4.56h-4.56zM19.49 40.07h4.56v4.56h-4.56zM10.37 30.95h4.56v4.56h-4.56zM37.73 40.07h4.56v4.56h-4.56zM46.85 30.95h4.56v4.56h-4.56zM46.85 40.07h4.56v4.56h-4.56zM37.73 30.95h4.56v4.56h-4.56zM65.09 40.07h4.56v4.56h-4.56zM74.21 30.95h4.56v4.56h-4.56zM74.21 40.07h4.56v4.56h-4.56zM65.09 30.95h4.56v4.56h-4.56zM10.37 67.43h4.56v4.56h-4.56zM19.49 58.31h4.56v4.56h-4.56zM19.49 67.43h4.56v4.56h-4.56zM10.37 58.31h4.56v4.56h-4.56zM37.73 67.43h4.56v4.56h-4.56zM46.85 58.31h4.56v4.56h-4.56zM46.85 67.43h4.56v4.56h-4.56zM37.73 58.31h4.56v4.56h-4.56zM65.09 67.43h4.56v4.56h-4.56zM74.21 58.31h4.56v4.56h-4.56zM74.21 67.43h4.56v4.56h-4.56zM65.09 58.31h4.56v4.56h-4.56z"/><path class="cls-6" d="M-82.08.01H.01v82.1h-82.09z"/><path class="cls-2" d="M-82.07 51.47H.01M-82.07 78.83H.01M-82.07 24.11H.01"/><path class="cls-4" d="M-82.07 40.07H.01v4.56h-82.08zM-82.07 67.43H.01v4.56h-82.08zM-82.07 12.71H.01v4.56h-82.08zM-82.07 30.95H.01v4.56h-82.08zM-82.07 58.31H.01v4.56h-82.08zM-82.07 3.59H.01v4.56h-82.08z"/><path class="cls-6" d="M0-82.07h82.09V.03H0z"/><path class="cls-2" d="M30.89-82.08V.02M58.25-82.08V.02"/><path class="cls-3" d="M37.73-82.08h4.56V.03h-4.56z"/><path class="cls-4" d="M65.09-82.08h4.56V.03h-4.56zM10.37-82.08h4.56V.03h-4.56zM46.85-82.08h4.56V.02h-4.56zM74.21-82.08h4.56V.02h-4.56z"/><path class="cls-5" d="M19.49-82.08h4.56V.03h-4.56z"/><path class="cls-6" d="M-82.08-82.07H.01V.03h-82.09z"/></pattern><style>.cls-2,.cls-3,.cls-4,.cls-5,.cls-6,.cls-7{fill:#9e005d}.cls-2{stroke:#85080a;stroke-width:.95px}.cls-3{opacity:.5}.cls-4{opacity:.75}.cls-5{opacity:.6}.cls-7{opacity:.33}</style></defs><path fill="url(#box-purple)" d="M0 0h1366v768H0z"/></svg>